<?xml version="1.0" standalone="no"?>
<!DOCTYPE svg PUBLIC "-//W3C//DTD SVG 20010904//EN"
 "http://www.w3.org/TR/2001/REC-SVG-20010904/DTD/svg10.dtd">
<svg version="1.0" xmlns="http://www.w3.org/2000/svg"
 width="500.000000pt" height="500.000000pt" viewBox="0 0 500.000000 500.000000"
 preserveAspectRatio="xMidYMid meet">
<metadata>
Created by potrace 1.14, written by Peter Selinger 2001-2017
</metadata>
<g transform="translate(0.000000,500.000000) scale(0.100000,-0.100000)"
fill="#000000" stroke="none">
<path d="M4176 4259 c-2 -8 -7 -45 -9 -84 -6 -79 -62 -259 -108 -346 -51 -95
-111 -154 -202 -199 -80 -39 -248 -82 -263 -67 -4 3 5 33 18 65 70 160 77 328
19 446 -19 39 -46 77 -67 92 -30 23 -41 26 -84 21 -108 -13 -185 -70 -215
-160 -26 -80 -31 -224 -10 -303 17 -65 73 -163 113 -198 12 -11 22 -25 22 -31
0 -20 -159 -173 -235 -228 -141 -100 -242 -140 -645 -257 -221 -64 -306 -105
-387 -185 -79 -79 -106 -157 -87 -254 9 -42 25 -39 48 12 11 23 45 67 75 97
74 74 180 120 459 200 117 33 247 74 288 90 235 94 404 215 546 392 l76 94
127 22 c306 54 432 162 529 453 30 90 51 254 37 290 -12 34 -39 56 -45 38z
m-653 -176 c41 -46 48 -213 12 -318 -33 -96 -76 -176 -93 -173 -48 9 -122 170
-122 267 0 69 25 159 51 188 46 50 123 68 152 36z"/>
<path d="M567 3008 c-27 -22 -31 -61 -7 -91 l21 -27 170 0 c166 0 170 0 179
-22 5 -13 93 -383 196 -823 140 -602 192 -809 209 -836 14 -21 42 -46 68 -58
44 -21 47 -21 716 -19 l673 3 19 24 c26 31 24 57 -6 86 l-24 25 -666 0 -665 0
-10 25 c-5 14 -16 52 -24 85 l-13 60 635 0 c623 0 637 0 678 21 24 11 52 35
64 53 13 22 43 147 90 382 125 622 131 658 119 715 -14 64 -65 124 -120 141
-35 10 -43 9 -67 -9 -39 -29 -41 -74 -6 -102 15 -11 33 -21 41 -21 26 0 35
-50 23 -117 l-12 -63 -772 0 c-850 0 -816 3 -816 -60 0 -62 -33 -60 802 -60
417 0 758 -3 758 -7 0 -16 -132 -672 -141 -700 -5 -17 -17 -34 -25 -37 -18 -7
-1284 -8 -1284 -2 0 10 -292 1255 -307 1308 -12 45 -26 67 -59 98 l-44 40
-188 0 c-135 0 -193 -4 -205 -12z"/>
<path d="M1510 1079 c-110 -44 -160 -170 -109 -276 26 -55 71 -89 135 -104 70
-16 124 1 179 55 103 103 69 264 -67 320 -42 18 -100 20 -138 5z m104 -140
c50 -39 24 -109 -40 -109 -60 0 -83 62 -39 105 29 30 45 31 79 4z"/>
<path d="M2465 1071 c-79 -36 -121 -112 -113 -207 8 -98 86 -167 187 -167 122
0 201 79 201 202 0 38 -7 59 -32 97 -57 86 -155 116 -243 75z m120 -136 c14
-13 25 -35 25 -48 0 -54 -77 -80 -112 -37 -30 37 -23 75 17 98 30 17 43 15 70
-13z"/>
</g>
</svg>
